<svg width="24" height="21" viewBox="0 0 24 21" fill="none" xmlns="http://www.w3.org/2000/svg">
<path d="M6.74967 0.0833435C3.2161 0.0833435 0.333008 2.96644 0.333008 6.50001C0.333008 8.88943 2.13413 11.1392 4.32975 13.4465C6.52537 15.7537 9.2279 18.0905 11.381 20.2437C11.5451 20.4077 11.7677 20.4998 11.9997 20.4998C12.2317 20.4998 12.4542 20.4077 12.6183 20.2437C14.7715 18.0905 17.474 15.7537 19.6696 13.4465C21.8652 11.1392 23.6663 8.88943 23.6663 6.50001C23.6663 2.96644 20.7833 0.0833435 17.2497 0.0833435C15.2218 0.0833435 13.4562 1.17213 11.9997 3.02166C10.5432 1.17213 8.7776 0.0833435 6.74967 0.0833435ZM6.74967 1.83334C8.45801 1.83334 9.88002 2.74241 11.2603 4.92547C11.3392 5.05016 11.4484 5.15287 11.5776 5.22405C11.7069 5.29522 11.8521 5.33254 11.9997 5.33254C12.1473 5.33254 12.2924 5.29522 12.4217 5.22405C12.551 5.15287 12.6602 5.05016 12.7391 4.92547C14.1193 2.74241 15.5413 1.83334 17.2497 1.83334C19.8376 1.83334 21.9163 3.91209 21.9163 6.50001C21.9163 7.90226 20.5091 10.0275 18.4027 12.2411C16.4818 14.2596 14.094 16.3685 11.9997 18.4105C9.90533 16.3685 7.51758 14.2596 5.59668 12.2411C3.49022 10.0275 2.08301 7.90226 2.08301 6.50001C2.08301 3.91209 4.16175 1.83334 6.74967 1.83334Z" fill="black"/>
</svg>
