<svg width="9" height="9" viewBox="0 0 9 9" fill="none" xmlns="http://www.w3.org/2000/svg">
<path d="M8.87695 7.78184L7.12441 6.0293C7.04531 5.9502 6.93809 5.90625 6.82559 5.90625H6.53906C7.02422 5.28574 7.3125 4.50527 7.3125 3.65625C7.3125 1.63652 5.67598 0 3.65625 0C1.63652 0 0 1.63652 0 3.65625C0 5.67598 1.63652 7.3125 3.65625 7.3125C4.50527 7.3125 5.28574 7.02422 5.90625 6.53906V6.82559C5.90625 6.93809 5.9502 7.04531 6.0293 7.12441L7.78184 8.87695C7.94707 9.04219 8.21426 9.04219 8.37773 8.87695L8.8752 8.37949C9.04043 8.21426 9.04043 7.94707 8.87695 7.78184ZM3.65625 5.90625C2.41348 5.90625 1.40625 4.90078 1.40625 3.65625C1.40625 2.41348 2.41172 1.40625 3.65625 1.40625C4.89902 1.40625 5.90625 2.41172 5.90625 3.65625C5.90625 4.89902 4.90078 5.90625 3.65625 5.90625Z" fill="#AFAFAF"/>
</svg>
